<?xml version="1.0" encoding="UTF-8"?>
<svg xmlns="http://www.w3.org/2000/svg" viewBox="280 510 1130 970" width="1130" height="970">
  <g id="footprint">
  <rect x="485" y="685" width="705" height="605" fill="#1a1f3a" stroke="#5a6090" stroke-width="2.4"/>
  <rect x="485" y="1290" width="700" height="162" fill="#1a1f3a" stroke="#5a6090" stroke-width="2.4"/>
  <rect x="1075" y="540" width="310" height="285" fill="#1a1f3a" stroke="#5a6090" stroke-width="2.4"/>
  <rect x="300" y="870" width="200" height="182" fill="#1a1f3a" stroke="#5a6090" stroke-width="2.4"/>
  <rect x="1170" y="1125" width="215" height="162" fill="#1a1f3a" stroke="#5a6090" stroke-width="2.4"/>
  <rect x="455" y="628" width="235" height="62" fill="#1a1f3a" stroke="#5a6090" stroke-width="2.4"/>
  </g>
  <path d="M300 870 v-120 a40 40 0 0 1 40 -40 h120 v-100 h760 v-60 h170 v420 h60 a40 40 0 0 1 0 80 h-60 v260 a40 40 0 0 1 -40 40 h-180 v160 h-700 v-160 h-160 v-180 h-110 a40 40 0 0 1 0 -80 h110 z" fill="none" stroke="#4a5080" stroke-width="1.4" stroke-dasharray="6 5" opacity="0.7"/>
  <g id="almacen_top">
  <rect x="1080" y="548" width="78" height="150" fill="#1c2249" stroke="#6a7090" stroke-width="1.4"/>
  <text x="1119" y="566" text-anchor="middle" font-size="13" font-weight="500" fill="#c7cbe0" style="pointer-events:none;user-select:none">Almacén</text>
  </g>
  <g id="agora1">
  <rect x="1175" y="590" width="100" height="185" fill="#1e1a30" stroke="#6a7090" stroke-width="1.4"/>
  <rect x="1187" y="618" width="76" height="141" fill="none" stroke="#6a7090" stroke-width="1"/>
  <rect x="1199" y="634" width="52" height="109" fill="none" stroke="#6a7090" stroke-width="1"/>
  <text x="1225" y="608" text-anchor="middle" font-size="15" font-weight="500" fill="#c7cbe0" style="pointer-events:none;user-select:none">Ágora 1</text>
  </g>
  <g id="wc1">
  <rect x="1290" y="555" width="85" height="78" fill="#0f1f1a" stroke="#6a7090" stroke-width="1.4"/>
  <text x="1332.5" y="598" text-anchor="middle" font-size="15" font-weight="500" fill="#c7cbe0" style="pointer-events:none;user-select:none">WC</text>
  </g>
  <g id="wc2">
  <rect x="1290" y="668" width="85" height="78" fill="#0f1f1a" stroke="#6a7090" stroke-width="1.4"/>
  <text x="1332.5" y="711" text-anchor="middle" font-size="15" font-weight="500" fill="#c7cbe0" style="pointer-events:none;user-select:none">WC</text>
  </g>
  <g id="hall">
  <rect x="490" y="690" width="195" height="185" fill="#1e1218" stroke="#6a7090" stroke-width="1.4"/>
  <text x="587.5" y="708" text-anchor="middle" font-size="13" font-weight="500" fill="#c7cbe0" style="pointer-events:none;user-select:none">Recepción/Hall</text>
  </g>
  <g id="au1">
  <rect x="818" y="720" width="92" height="95" fill="#0f1a2e" stroke="#6a7090" stroke-width="1.4"/>
  <text x="864" y="771.5" text-anchor="middle" font-size="15" font-weight="700" fill="#c7cbe0" style="pointer-events:none;user-select:none">AU 1</text>
  </g>
  <g id="au2">
  <rect x="818" y="820" width="92" height="65" fill="#0f1a2e" stroke="#6a7090" stroke-width="1.4"/>
  <text x="864" y="856.5" text-anchor="middle" font-size="15" font-weight="700" fill="#c7cbe0" style="pointer-events:none;user-select:none">AU 2</text>
  </g>
  <g id="au3">
  <rect x="818" y="890" width="92" height="75" fill="#0f1a2e" stroke="#6a7090" stroke-width="1.4"/>
  <text x="864" y="931.5" text-anchor="middle" font-size="15" font-weight="700" fill="#c7cbe0" style="pointer-events:none;user-select:none">AU 3</text>
  </g>
  <g id="au4">
  <rect x="818" y="970" width="92" height="80" fill="#0f1a2e" stroke="#6a7090" stroke-width="1.4"/>
  <text x="864" y="1014" text-anchor="middle" font-size="15" font-weight="700" fill="#c7cbe0" style="pointer-events:none;user-select:none">AU 4</text>
  </g>
  <g id="au5">
  <rect x="818" y="1055" width="92" height="70" fill="#0f1a2e" stroke="#6a7090" stroke-width="1.4"/>
  <text x="864" y="1094" text-anchor="middle" font-size="15" font-weight="700" fill="#c7cbe0" style="pointer-events:none;user-select:none">AU 5</text>
  </g>
  <g id="au6">
  <rect x="818" y="1130" width="92" height="82" fill="#0f1a2e" stroke="#6a7090" stroke-width="1.4"/>
  <text x="864" y="1175" text-anchor="middle" font-size="15" font-weight="700" fill="#c7cbe0" style="pointer-events:none;user-select:none">AU 6</text>
  </g>
  <g id="patio1">
  <rect x="685" y="720" width="95" height="530" fill="#0f1f1a" stroke="#6a7090" stroke-width="1.4"/>
  <line x1="685" y1="1250" x2="780" y2="720" stroke="#6a7090" stroke-width="0.7" opacity="0.5"/>
  <text x="732.5" y="738" text-anchor="middle" font-size="15" font-weight="500" fill="#c7cbe0" style="pointer-events:none;user-select:none">Patio 1</text>
  </g>
  <g id="patio2">
  <rect x="910" y="720" width="90" height="460" fill="#0f1f1a" stroke="#6a7090" stroke-width="1.4"/>
  <line x1="910" y1="1180" x2="1000" y2="720" stroke="#6a7090" stroke-width="0.7" opacity="0.5"/>
  <text x="955" y="738" text-anchor="middle" font-size="15" font-weight="500" fill="#c7cbe0" style="pointer-events:none;user-select:none">Patio 2</text>
  </g>
  <g id="of1">
  <rect x="575" y="1080" width="110" height="72" fill="#1a1430" stroke="#6a7090" stroke-width="1.4"/>
  <text x="630" y="1120" text-anchor="middle" font-size="15" font-weight="700" fill="#c7cbe0" style="pointer-events:none;user-select:none">O F 1</text>
  </g>
  <g id="of2">
  <rect x="1005" y="720" width="75" height="72" fill="#1a1430" stroke="#6a7090" stroke-width="1.4"/>
  <text x="1042.5" y="760" text-anchor="middle" font-size="15" font-weight="700" fill="#c7cbe0" style="pointer-events:none;user-select:none">O F 2</text>
  </g>
  <g id="of3">
  <rect x="1005" y="825" width="75" height="65" fill="#1a1430" stroke="#6a7090" stroke-width="1.4"/>
  <text x="1042.5" y="861.5" text-anchor="middle" font-size="15" font-weight="700" fill="#c7cbe0" style="pointer-events:none;user-select:none">O F 3</text>
  </g>
  <g id="of4">
  <rect x="1005" y="905" width="95" height="75" fill="#1a1430" stroke="#6a7090" stroke-width="1.4"/>
  <text x="1052.5" y="946.5" text-anchor="middle" font-size="15" font-weight="700" fill="#c7cbe0" style="pointer-events:none;user-select:none">O F 4</text>
  </g>
  <g id="of5">
  <rect x="1005" y="1080" width="95" height="72" fill="#1a1430" stroke="#6a7090" stroke-width="1.4"/>
  <text x="1052.5" y="1120" text-anchor="middle" font-size="15" font-weight="700" fill="#c7cbe0" style="pointer-events:none;user-select:none">O F 5</text>
  </g>
  <g id="alm_mant">
  <rect x="1080" y="720" width="62" height="110" fill="#1c2249" stroke="#6a7090" stroke-width="1.4"/>
  <text x="1111" y="738" text-anchor="middle" font-size="10" font-weight="500" fill="#c7cbe0" style="pointer-events:none;user-select:none">Almacén Manteni.</text>
  </g>
  <g id="almacen4">
  <rect x="305" y="875" width="95" height="65" fill="#1c2249" stroke="#6a7090" stroke-width="1.4"/>
  <text x="352.5" y="911.5" text-anchor="middle" font-size="11" font-weight="500" fill="#c7cbe0" style="pointer-events:none;user-select:none">Almacén 4</text>
  </g>
  <g id="almacen5">
  <rect x="305" y="950" width="78" height="82" fill="#1c2249" stroke="#6a7090" stroke-width="1.4"/>
  <text x="344" y="995" text-anchor="middle" font-size="11" font-weight="500" fill="#c7cbe0" style="pointer-events:none;user-select:none">Almacén 5</text>
  </g>
  <g id="office">
  <rect x="415" y="935" width="55" height="55" fill="#1a1610" stroke="#6a7090" stroke-width="1.4"/>
  <text x="442.5" y="966.5" text-anchor="middle" font-size="10" font-weight="500" fill="#c7cbe0" style="pointer-events:none;user-select:none">Office</text>
  </g>
  <g id="antesala">
  <rect x="490" y="880" width="195" height="195" fill="#1a1610" stroke="#6a7090" stroke-width="1.4"/>
  <text x="587.5" y="898" text-anchor="middle" font-size="13" font-weight="500" fill="#c7cbe0" style="pointer-events:none;user-select:none">Antesala/office</text>
  </g>
  <g id="recepcion2">
  <rect x="490" y="1305" width="145" height="145" fill="#1e1218" stroke="#6a7090" stroke-width="1.4"/>
  <text x="562.5" y="1323" text-anchor="middle" font-size="12" font-weight="500" fill="#c7cbe0" style="pointer-events:none;user-select:none">Recepción 2</text>
  </g>
  <g id="cw2">
  <rect x="635" y="1305" width="175" height="145" fill="#0f1a2e" stroke="#6a7090" stroke-width="1.4"/>
  <text x="722.5" y="1323" text-anchor="middle" font-size="15" font-weight="700" fill="#c7cbe0" style="pointer-events:none;user-select:none">CW2</text>
  </g>
  <g id="mid1">
  <rect x="800" y="1305" width="165" height="145" fill="#1c2249" stroke="#6a7090" stroke-width="1.4"/>
  </g>
  <g id="cw1">
  <rect x="965" y="1305" width="130" height="145" fill="#0f1a2e" stroke="#6a7090" stroke-width="1.4"/>
  <text x="1030" y="1381.5" text-anchor="middle" font-size="15" font-weight="700" fill="#c7cbe0" style="pointer-events:none;user-select:none">C W 1</text>
  </g>
  <g id="of6">
  <rect x="1095" y="1305" width="80" height="145" fill="#1a1430" stroke="#6a7090" stroke-width="1.4"/>
  <text x="1135" y="1381.5" text-anchor="middle" font-size="15" font-weight="700" fill="#c7cbe0" style="pointer-events:none;user-select:none">O F 6</text>
  </g>
  <g id="agora2">
  <rect x="1175" y="1130" width="100" height="150" fill="#1e1a30" stroke="#6a7090" stroke-width="1.4"/>
  <rect x="1187" y="1158" width="76" height="106" fill="none" stroke="#6a7090" stroke-width="1"/>
  <rect x="1199" y="1174" width="52" height="74" fill="none" stroke="#6a7090" stroke-width="1"/>
  <text x="1225" y="1148" text-anchor="middle" font-size="15" font-weight="500" fill="#c7cbe0" style="pointer-events:none;user-select:none">Ágora 2</text>
  </g>
  <g fill="#5a6090">
  <rect x="571" y="716" width="8" height="8"/>
  <rect x="681" y="716" width="8" height="8"/>
  <rect x="776" y="716" width="8" height="8"/>
  <rect x="920" y="716" width="8" height="8"/>
  <rect x="908" y="716" width="8" height="8"/>
  <rect x="1006" y="716" width="8" height="8"/>
  <rect x="571" y="876" width="8" height="8"/>
  <rect x="681" y="876" width="8" height="8"/>
  <rect x="920" y="876" width="8" height="8"/>
  <rect x="908" y="876" width="8" height="8"/>
  <rect x="571" y="1071" width="8" height="8"/>
  <rect x="681" y="1071" width="8" height="8"/>
  <rect x="920" y="1071" width="8" height="8"/>
  <rect x="908" y="1071" width="8" height="8"/>
  <rect x="571" y="1286" width="8" height="8"/>
  <rect x="681" y="1286" width="8" height="8"/>
  <rect x="796" y="1286" width="8" height="8"/>
  <rect x="906" y="1286" width="8" height="8"/>
  <rect x="996" y="1286" width="8" height="8"/>
  <rect x="1091" y="1286" width="8" height="8"/>
  <rect x="486" y="876" width="8" height="8"/>
  <rect x="486" y="1071" width="8" height="8"/>
  </g>
  <g>
    <rect x="655" y="720" width="56" height="92" fill="#1a1f3a" stroke="#5a6090" stroke-width="1.2"/>
    <line x1="655" y1="729.2" x2="711" y2="729.2" stroke="#6a7090" stroke-width="0.9"/><line x1="655" y1="738.4" x2="711" y2="738.4" stroke="#6a7090" stroke-width="0.9"/><line x1="655" y1="747.6" x2="711" y2="747.6" stroke="#6a7090" stroke-width="0.9"/><line x1="655" y1="756.8" x2="711" y2="756.8" stroke="#6a7090" stroke-width="0.9"/><line x1="655" y1="766" x2="711" y2="766" stroke="#6a7090" stroke-width="0.9"/><line x1="655" y1="775.2" x2="711" y2="775.2" stroke="#6a7090" stroke-width="0.9"/><line x1="655" y1="784.4" x2="711" y2="784.4" stroke="#6a7090" stroke-width="0.9"/><line x1="655" y1="793.6" x2="711" y2="793.6" stroke="#6a7090" stroke-width="0.9"/><line x1="655" y1="802.8" x2="711" y2="802.8" stroke="#6a7090" stroke-width="0.9"/>
    <rect x="670" y="753" width="26" height="26" fill="#131838" stroke="#5a6090" stroke-width="1.1"/>
      <line x1="670" y1="753" x2="696" y2="779" stroke="#6a7090" stroke-width="0.9"/>
      <line x1="696" y1="753" x2="670" y2="779" stroke="#6a7090" stroke-width="0.9"/>
  </g>
  <g>
    <rect x="655" y="1175" width="56" height="95" fill="#1a1f3a" stroke="#5a6090" stroke-width="1.2"/>
    <line x1="655" y1="1184.5" x2="711" y2="1184.5" stroke="#6a7090" stroke-width="0.9"/><line x1="655" y1="1194" x2="711" y2="1194" stroke="#6a7090" stroke-width="0.9"/><line x1="655" y1="1203.5" x2="711" y2="1203.5" stroke="#6a7090" stroke-width="0.9"/><line x1="655" y1="1213" x2="711" y2="1213" stroke="#6a7090" stroke-width="0.9"/><line x1="655" y1="1222.5" x2="711" y2="1222.5" stroke="#6a7090" stroke-width="0.9"/><line x1="655" y1="1232" x2="711" y2="1232" stroke="#6a7090" stroke-width="0.9"/><line x1="655" y1="1241.5" x2="711" y2="1241.5" stroke="#6a7090" stroke-width="0.9"/><line x1="655" y1="1251" x2="711" y2="1251" stroke="#6a7090" stroke-width="0.9"/><line x1="655" y1="1260.5" x2="711" y2="1260.5" stroke="#6a7090" stroke-width="0.9"/>
    <rect x="670" y="1209.5" width="26" height="26" fill="#131838" stroke="#5a6090" stroke-width="1.1"/>
      <line x1="670" y1="1209.5" x2="696" y2="1235.5" stroke="#6a7090" stroke-width="0.9"/>
      <line x1="696" y1="1209.5" x2="670" y2="1235.5" stroke="#6a7090" stroke-width="0.9"/>
  </g>
  <g>
    <rect x="510" y="1175" width="130" height="110" fill="#1a1f3a" stroke="#5a6090" stroke-width="1.2"/>
    <line x1="519.2857142857143" y1="1175" x2="519.2857142857143" y2="1285" stroke="#6a7090" stroke-width="0.9"/><line x1="528.5714285714286" y1="1175" x2="528.5714285714286" y2="1285" stroke="#6a7090" stroke-width="0.9"/><line x1="537.8571428571429" y1="1175" x2="537.8571428571429" y2="1285" stroke="#6a7090" stroke-width="0.9"/><line x1="547.1428571428571" y1="1175" x2="547.1428571428571" y2="1285" stroke="#6a7090" stroke-width="0.9"/><line x1="556.4285714285714" y1="1175" x2="556.4285714285714" y2="1285" stroke="#6a7090" stroke-width="0.9"/><line x1="565.7142857142858" y1="1175" x2="565.7142857142858" y2="1285" stroke="#6a7090" stroke-width="0.9"/><line x1="575" y1="1175" x2="575" y2="1285" stroke="#6a7090" stroke-width="0.9"/><line x1="584.2857142857143" y1="1175" x2="584.2857142857143" y2="1285" stroke="#6a7090" stroke-width="0.9"/><line x1="593.5714285714286" y1="1175" x2="593.5714285714286" y2="1285" stroke="#6a7090" stroke-width="0.9"/><line x1="602.8571428571429" y1="1175" x2="602.8571428571429" y2="1285" stroke="#6a7090" stroke-width="0.9"/><line x1="612.1428571428571" y1="1175" x2="612.1428571428571" y2="1285" stroke="#6a7090" stroke-width="0.9"/><line x1="621.4285714285714" y1="1175" x2="621.4285714285714" y2="1285" stroke="#6a7090" stroke-width="0.9"/><line x1="630.7142857142858" y1="1175" x2="630.7142857142858" y2="1285" stroke="#6a7090" stroke-width="0.9"/>
    
  </g>
  <g>
    <rect x="1298" y="752" width="58" height="62" fill="#1a1f3a" stroke="#5a6090" stroke-width="1.2"/>
    <line x1="1307.6666666666667" y1="752" x2="1307.6666666666667" y2="814" stroke="#6a7090" stroke-width="0.9"/><line x1="1317.3333333333333" y1="752" x2="1317.3333333333333" y2="814" stroke="#6a7090" stroke-width="0.9"/><line x1="1327" y1="752" x2="1327" y2="814" stroke="#6a7090" stroke-width="0.9"/><line x1="1336.6666666666667" y1="752" x2="1336.6666666666667" y2="814" stroke="#6a7090" stroke-width="0.9"/><line x1="1346.3333333333333" y1="752" x2="1346.3333333333333" y2="814" stroke="#6a7090" stroke-width="0.9"/>
    
  </g>
  <g>
    <rect x="312" y="1032" width="58" height="45" fill="#1a1f3a" stroke="#5a6090" stroke-width="1.2"/>
    <line x1="312" y1="1041" x2="370" y2="1041" stroke="#6a7090" stroke-width="0.9"/><line x1="312" y1="1050" x2="370" y2="1050" stroke="#6a7090" stroke-width="0.9"/><line x1="312" y1="1059" x2="370" y2="1059" stroke="#6a7090" stroke-width="0.9"/><line x1="312" y1="1068" x2="370" y2="1068" stroke="#6a7090" stroke-width="0.9"/>
    
  </g>
  <g>
    <rect x="1288" y="1208" width="58" height="58" fill="#1a1f3a" stroke="#5a6090" stroke-width="1.2"/>
    <line x1="1297.6666666666667" y1="1208" x2="1297.6666666666667" y2="1266" stroke="#6a7090" stroke-width="0.9"/><line x1="1307.3333333333333" y1="1208" x2="1307.3333333333333" y2="1266" stroke="#6a7090" stroke-width="0.9"/><line x1="1317" y1="1208" x2="1317" y2="1266" stroke="#6a7090" stroke-width="0.9"/><line x1="1326.6666666666667" y1="1208" x2="1326.6666666666667" y2="1266" stroke="#6a7090" stroke-width="0.9"/><line x1="1336.3333333333333" y1="1208" x2="1336.3333333333333" y2="1266" stroke="#6a7090" stroke-width="0.9"/>
    
  </g>
  <g>
    <rect x="1280" y="1290" width="75" height="38" fill="#1a1f3a" stroke="#5a6090" stroke-width="1.2"/>
    <line x1="1289.375" y1="1290" x2="1289.375" y2="1328" stroke="#6a7090" stroke-width="0.9"/><line x1="1298.75" y1="1290" x2="1298.75" y2="1328" stroke="#6a7090" stroke-width="0.9"/><line x1="1308.125" y1="1290" x2="1308.125" y2="1328" stroke="#6a7090" stroke-width="0.9"/><line x1="1317.5" y1="1290" x2="1317.5" y2="1328" stroke="#6a7090" stroke-width="0.9"/><line x1="1326.875" y1="1290" x2="1326.875" y2="1328" stroke="#6a7090" stroke-width="0.9"/><line x1="1336.25" y1="1290" x2="1336.25" y2="1328" stroke="#6a7090" stroke-width="0.9"/><line x1="1345.625" y1="1290" x2="1345.625" y2="1328" stroke="#6a7090" stroke-width="0.9"/>
    
  </g>
  <g transform="rotate(-90 818 770)">
    <line x1="818" y1="770" x2="792" y2="770" stroke="#5a6090" stroke-width="1.3"/>
    <path d="M 792 770 A 26 26 0 0 1 818 796" fill="none" stroke="#6a7090" stroke-width="1" stroke-dasharray="3 2"/>
  </g>
  <g transform="rotate(-90 818 855)">
    <line x1="818" y1="855" x2="792" y2="855" stroke="#5a6090" stroke-width="1.3"/>
    <path d="M 792 855 A 24 24 0 0 1 818 879" fill="none" stroke="#6a7090" stroke-width="1" stroke-dasharray="3 2"/>
  </g>
  <g transform="rotate(-90 818 930)">
    <line x1="818" y1="930" x2="792" y2="930" stroke="#5a6090" stroke-width="1.3"/>
    <path d="M 792 930 A 24 24 0 0 1 818 954" fill="none" stroke="#6a7090" stroke-width="1" stroke-dasharray="3 2"/>
  </g>
  <g transform="rotate(-90 818 1010)">
    <line x1="818" y1="1010" x2="792" y2="1010" stroke="#5a6090" stroke-width="1.3"/>
    <path d="M 792 1010 A 24 24 0 0 1 818 1034" fill="none" stroke="#6a7090" stroke-width="1" stroke-dasharray="3 2"/>
  </g>
  <g transform="rotate(-90 818 1090)">
    <line x1="818" y1="1090" x2="792" y2="1090" stroke="#5a6090" stroke-width="1.3"/>
    <path d="M 792 1090 A 24 24 0 0 1 818 1114" fill="none" stroke="#6a7090" stroke-width="1" stroke-dasharray="3 2"/>
  </g>
  <g transform="rotate(-90 818 1171)">
    <line x1="818" y1="1171" x2="792" y2="1171" stroke="#5a6090" stroke-width="1.3"/>
    <path d="M 792 1171 A 24 24 0 0 1 818 1195" fill="none" stroke="#6a7090" stroke-width="1" stroke-dasharray="3 2"/>
  </g>
  <g transform="rotate(180 1005 760)">
    <line x1="1005" y1="760" x2="1029" y2="760" stroke="#5a6090" stroke-width="1.3"/>
    <path d="M 1029 760 A 24 24 0 0 1 1005 784" fill="none" stroke="#6a7090" stroke-width="1" stroke-dasharray="3 2"/>
  </g>
  <g transform="rotate(180 1005 860)">
    <line x1="1005" y1="860" x2="1027" y2="860" stroke="#5a6090" stroke-width="1.3"/>
    <path d="M 1027 860 A 22 22 0 0 1 1005 882" fill="none" stroke="#6a7090" stroke-width="1" stroke-dasharray="3 2"/>
  </g>
  <g transform="rotate(180 1005 945)">
    <line x1="1005" y1="945" x2="1029" y2="945" stroke="#5a6090" stroke-width="1.3"/>
    <path d="M 1029 945 A 24 24 0 0 1 1005 969" fill="none" stroke="#6a7090" stroke-width="1" stroke-dasharray="3 2"/>
  </g>
  <g transform="rotate(180 1005 1115)">
    <line x1="1005" y1="1115" x2="1029" y2="1115" stroke="#5a6090" stroke-width="1.3"/>
    <path d="M 1029 1115 A 24 24 0 0 1 1005 1139" fill="none" stroke="#6a7090" stroke-width="1" stroke-dasharray="3 2"/>
  </g>
  <g transform="rotate(0 685 760)">
    <line x1="685" y1="760" x2="713" y2="760" stroke="#5a6090" stroke-width="1.3"/>
    <path d="M 713 760 A 28 28 0 0 1 685 788" fill="none" stroke="#6a7090" stroke-width="1" stroke-dasharray="3 2"/>
  </g>
  <g transform="rotate(270 600 690)">
    <line x1="600" y1="690" x2="626" y2="690" stroke="#5a6090" stroke-width="1.3"/>
    <path d="M 626 690 A 26 26 0 0 1 600 716" fill="none" stroke="#6a7090" stroke-width="1" stroke-dasharray="3 2"/>
  </g>
  <g transform="rotate(180 685 1110)">
    <line x1="685" y1="1110" x2="711" y2="1110" stroke="#5a6090" stroke-width="1.3"/>
    <path d="M 711 1110 A 26 26 0 0 1 685 1136" fill="none" stroke="#6a7090" stroke-width="1" stroke-dasharray="3 2"/>
  </g>
  <g transform="rotate(0 685 930)">
    <line x1="685" y1="930" x2="711" y2="930" stroke="#5a6090" stroke-width="1.3"/>
    <path d="M 711 930 A 26 26 0 0 1 685 956" fill="none" stroke="#6a7090" stroke-width="1" stroke-dasharray="3 2"/>
  </g>
  <g transform="rotate(0 470 935)">
    <line x1="470" y1="935" x2="492" y2="935" stroke="#5a6090" stroke-width="1.3"/>
    <path d="M 492 935 A 22 22 0 0 1 470 957" fill="none" stroke="#6a7090" stroke-width="1" stroke-dasharray="3 2"/>
  </g>
  <g transform="rotate(0 400 905)">
    <line x1="400" y1="905" x2="420" y2="905" stroke="#5a6090" stroke-width="1.3"/>
    <path d="M 420 905 A 20 20 0 0 1 400 925" fill="none" stroke="#6a7090" stroke-width="1" stroke-dasharray="3 2"/>
  </g>
  <g transform="rotate(0 383 985)">
    <line x1="383" y1="985" x2="403" y2="985" stroke="#5a6090" stroke-width="1.3"/>
    <path d="M 403 985 A 20 20 0 0 1 383 1005" fill="none" stroke="#6a7090" stroke-width="1" stroke-dasharray="3 2"/>
  </g>
  <g transform="rotate(0 1158 600)">
    <line x1="1158" y1="600" x2="1182" y2="600" stroke="#5a6090" stroke-width="1.3"/>
    <path d="M 1182 600 A 24 24 0 0 1 1158 624" fill="none" stroke="#6a7090" stroke-width="1" stroke-dasharray="3 2"/>
  </g>
  <g transform="rotate(0 1275 600)">
    <line x1="1275" y1="600" x2="1297" y2="600" stroke="#5a6090" stroke-width="1.3"/>
    <path d="M 1297 600 A 22 22 0 0 1 1275 622" fill="none" stroke="#6a7090" stroke-width="1" stroke-dasharray="3 2"/>
  </g>
  <g transform="rotate(270 1290 668)">
    <line x1="1290" y1="668" x2="1310" y2="668" stroke="#5a6090" stroke-width="1.3"/>
    <path d="M 1310 668 A 20 20 0 0 1 1290 688" fill="none" stroke="#6a7090" stroke-width="1" stroke-dasharray="3 2"/>
  </g>
  <g transform="rotate(0 635 1340)">
    <line x1="635" y1="1340" x2="661" y2="1340" stroke="#5a6090" stroke-width="1.3"/>
    <path d="M 661 1340 A 26 26 0 0 1 635 1366" fill="none" stroke="#6a7090" stroke-width="1" stroke-dasharray="3 2"/>
  </g>
  <g transform="rotate(180 800 1340)">
    <line x1="800" y1="1340" x2="824" y2="1340" stroke="#5a6090" stroke-width="1.3"/>
    <path d="M 824 1340 A 24 24 0 0 1 800 1364" fill="none" stroke="#6a7090" stroke-width="1" stroke-dasharray="3 2"/>
  </g>
  <g transform="rotate(0 965 1340)">
    <line x1="965" y1="1340" x2="989" y2="1340" stroke="#5a6090" stroke-width="1.3"/>
    <path d="M 989 1340 A 24 24 0 0 1 965 1364" fill="none" stroke="#6a7090" stroke-width="1" stroke-dasharray="3 2"/>
  </g>
  <g transform="rotate(180 1095 1340)">
    <line x1="1095" y1="1340" x2="1117" y2="1340" stroke="#5a6090" stroke-width="1.3"/>
    <path d="M 1117 1340 A 22 22 0 0 1 1095 1362" fill="none" stroke="#6a7090" stroke-width="1" stroke-dasharray="3 2"/>
  </g>
  <g transform="rotate(0 1175 1170)">
    <line x1="1175" y1="1170" x2="1199" y2="1170" stroke="#5a6090" stroke-width="1.3"/>
    <path d="M 1199 1170 A 24 24 0 0 1 1175 1194" fill="none" stroke="#6a7090" stroke-width="1" stroke-dasharray="3 2"/>
  </g>
  <g>
  <text x="635" y="612" text-anchor="middle" font-size="13" fill="#c7cbe0">Entrada IAT</text>
  <path d="M455 660 l-55 40 l30 40 l55 -40 z" fill="#1a1f3a" stroke="#5a6090" stroke-width="1.2"/>
  <line x1="455" y1="660" x2="430" y2="740" stroke="#6a7090" stroke-width="0.8"/>
  <line x1="300" y1="1100" x2="470" y2="1100" stroke="#3a4070" stroke-width="0.8"/>
  <line x1="300" y1="1109" x2="470" y2="1109" stroke="#3a4070" stroke-width="0.8"/>
  <line x1="300" y1="1118" x2="470" y2="1118" stroke="#3a4070" stroke-width="0.8"/>
  <line x1="300" y1="1127" x2="470" y2="1127" stroke="#3a4070" stroke-width="0.8"/>
  <line x1="300" y1="1136" x2="470" y2="1136" stroke="#3a4070" stroke-width="0.8"/>
  <line x1="300" y1="1145" x2="470" y2="1145" stroke="#3a4070" stroke-width="0.8"/>
  <line x1="300" y1="1154" x2="470" y2="1154" stroke="#3a4070" stroke-width="0.8"/>
  <line x1="300" y1="1163" x2="470" y2="1163" stroke="#3a4070" stroke-width="0.8"/>
  <line x1="300" y1="1340" x2="470" y2="1340" stroke="#3a4070" stroke-width="0.8"/>
  <line x1="300" y1="1349" x2="470" y2="1349" stroke="#3a4070" stroke-width="0.8"/>
  <line x1="300" y1="1358" x2="470" y2="1358" stroke="#3a4070" stroke-width="0.8"/>
  <line x1="300" y1="1367" x2="470" y2="1367" stroke="#3a4070" stroke-width="0.8"/>
  <line x1="300" y1="1376" x2="470" y2="1376" stroke="#3a4070" stroke-width="0.8"/>
  <line x1="300" y1="1385" x2="470" y2="1385" stroke="#3a4070" stroke-width="0.8"/>
  <line x1="300" y1="1394" x2="470" y2="1394" stroke="#3a4070" stroke-width="0.8"/>
  </g>
  <g>
  <circle cx="426" cy="530" r="8" fill="none" stroke="#60c080" stroke-width="1.6"/>
  <circle cx="426" cy="530" r="2" fill="#60c080"/>
  <circle cx="426" cy="556" r="8" fill="none" stroke="#60c080" stroke-width="1.6"/>
  <circle cx="426" cy="556" r="2" fill="#60c080"/>
  <circle cx="426" cy="582" r="8" fill="none" stroke="#60c080" stroke-width="1.6"/>
  <circle cx="426" cy="582" r="2" fill="#60c080"/>
  <circle cx="426" cy="608" r="8" fill="none" stroke="#60c080" stroke-width="1.6"/>
  <circle cx="426" cy="608" r="2" fill="#60c080"/>
  <circle cx="426" cy="634" r="8" fill="none" stroke="#60c080" stroke-width="1.6"/>
  <circle cx="426" cy="634" r="2" fill="#60c080"/>
  <text x="398" y="585" font-size="11" fill="#60c080" font-weight="600" letter-spacing="2" transform="rotate(-90 398 585)">POLO DIGITAL</text>
  </g>
  <g>
  <g><circle cx="540" cy="1340" r="17" fill="#fff" stroke="#5a6090" stroke-width="1.4"/><text x="540" y="1345" text-anchor="middle" font-size="13" font-weight="700" fill="#c7cbe0">S1</text></g>
  <g><circle cx="600" cy="1340" r="17" fill="#fff" stroke="#5a6090" stroke-width="1.4"/><text x="600" y="1345" text-anchor="middle" font-size="13" font-weight="700" fill="#c7cbe0">S2</text></g>
  </g>
  <g><rect x="428" y="1049" width="68" height="18" rx="3" fill="#fff" stroke="#ff6060" stroke-width="1" opacity="0.95"/><text x="462" y="1062" text-anchor="middle" font-size="12" font-weight="700" fill="#e23b3b">Evacu. 1</text></g>
  <g><rect x="424" y="889" width="68" height="18" rx="3" fill="#fff" stroke="#ff6060" stroke-width="1" opacity="0.95"/><text x="458" y="902" text-anchor="middle" font-size="12" font-weight="700" fill="#e23b3b">Evacu. 2</text></g>
  <g><rect x="1214" y="759" width="68" height="18" rx="3" fill="#fff" stroke="#ff6060" stroke-width="1" opacity="0.95"/><text x="1248" y="772" text-anchor="middle" font-size="12" font-weight="700" fill="#e23b3b">Evacu. 3</text></g>
  <g><rect x="1214" y="1229" width="68" height="18" rx="3" fill="#fff" stroke="#ff6060" stroke-width="1" opacity="0.95"/><text x="1248" y="1242" text-anchor="middle" font-size="12" font-weight="700" fill="#e23b3b">Evacu. 4</text></g>
</svg>

